<?xml version="1.0" standalone="no"?>
<!DOCTYPE svg PUBLIC "-//W3C//DTD SVG 20010904//EN"
 "http://www.w3.org/TR/2001/REC-SVG-20010904/DTD/svg10.dtd">
<svg version="1.0" xmlns="http://www.w3.org/2000/svg"
 width="353.000000pt" height="188.000000pt" viewBox="0 0 353.000000 188.000000"
 preserveAspectRatio="xMidYMid meet">
<metadata>
Created by potrace 1.13, written by Peter Selinger 2001-2015
</metadata>
<g transform="translate(0.000000,188.000000) scale(0.100000,-0.100000)"
fill="#ffffff" stroke="none">
<path d="M0 1585 l0 -295 293 0 292 0 31 58 31 57 381 3 382 2 0 -350 0 -350
350 0 350 0 0 350 0 350 379 0 378 0 32 -60 32 -60 292 2 292 3 3 293 2 292
-1760 0 -1760 0 0 -295z"/>
<path d="M627 1153 c-247 -455 -573 -1056 -598 -1100 l-29 -53 293 0 293 0
158 293 c87 160 164 298 171 306 11 11 29 1 111 -59 127 -94 214 -158 339
-250 101 -74 249 -183 338 -249 27 -20 53 -35 58 -33 9 2 61 39 234 167 39 28
113 83 165 121 199 146 277 204 350 258 41 31 79 54 83 53 5 -1 82 -137 172
-302 l163 -300 292 -3 c244 -2 291 0 287 11 -3 8 -115 216 -250 463 -134 247
-288 531 -343 631 l-99 183 -292 0 -293 0 0 -350 0 -350 -470 0 -470 0 0 350
0 350 -294 0 -294 0 -75 -137z"/>
</g>
</svg>
